<svg width="90" height="90" viewBox="0 0 90 90" fill="none" xmlns="http://www.w3.org/2000/svg">
<path d="M60 3.75H30C23.775 3.75 18.75 8.775 18.75 15V75C18.75 81.225 23.775 86.25 30 86.25H60C66.225 86.25 71.25 81.225 71.25 75V15C71.25 8.775 66.225 3.75 60 3.75ZM52.5 78.75H37.5V75H52.5V78.75ZM64.6875 67.5H25.3125V15H64.6875V67.5Z" fill="black"/>
<g clip-path="url(#clip0)">
<path d="M55.375 34.875C54.3781 34.875 53.5625 35.6906 53.5625 36.6875V43.9375C53.5625 44.9344 54.3781 45.75 55.375 45.75C56.3719 45.75 57.1875 44.9344 57.1875 43.9375V36.6875C57.1875 35.6906 56.3719 34.875 55.375 34.875ZM33.625 34.875C32.6281 34.875 31.8125 35.6906 31.8125 36.6875V43.9375C31.8125 44.9344 32.6281 45.75 33.625 45.75C34.6219 45.75 35.4375 44.9344 35.4375 43.9375V36.6875C35.4375 35.6906 34.6219 34.875 33.625 34.875ZM36.3438 44.8438C36.3438 45.5648 36.6302 46.2563 37.1401 46.7662C37.6499 47.2761 38.3414 47.5625 39.0625 47.5625V51.1875C39.0625 52.1844 39.8781 53 40.875 53C41.8719 53 42.6875 52.1844 42.6875 51.1875V47.5625H46.3125V51.1875C46.3125 52.1844 47.1281 53 48.125 53C49.1219 53 49.9375 52.1844 49.9375 51.1875V47.5625C50.6586 47.5625 51.3501 47.2761 51.8599 46.7662C52.3698 46.2563 52.6562 45.5648 52.6562 44.8438V34.875H36.3438V44.8438Z" fill="black"/>
<path d="M52.6055 33.0624C52.4713 31.8628 52.0724 30.7079 51.4377 29.6811C50.803 28.6543 49.9483 27.7811 48.9352 27.1247L49.8415 25.3104C49.9489 25.0953 49.9665 24.8463 49.8903 24.6182C49.8142 24.3901 49.6506 24.2016 49.4355 24.0942C49.2204 23.9868 48.9714 23.9692 48.7433 24.0453C48.5152 24.1215 48.3267 24.2851 48.2193 24.5002L47.3094 26.3199L47.0738 26.2257C45.4028 25.6706 43.5972 25.6706 41.9263 26.2257L41.6907 26.3199L40.7808 24.5002C40.6733 24.2851 40.4849 24.1215 40.2568 24.0453C40.0287 23.9692 39.7797 23.9868 39.5646 24.0942C39.3495 24.2016 39.1859 24.3901 39.1097 24.6182C39.0336 24.8463 39.0512 25.0953 39.1586 25.3104L40.0648 27.1247C39.0517 27.781 38.1969 28.6541 37.5622 29.681C36.9275 30.7078 36.5287 31.8628 36.3945 33.0624V33.9687H52.6563V33.0624H52.6055ZM41.7813 31.2499C41.5409 31.2502 41.3103 31.1549 41.1402 30.9851C40.9701 30.8154 40.8744 30.585 40.8741 30.3446C40.8739 30.1042 40.9691 29.8736 41.1389 29.7035C41.3087 29.5334 41.5391 29.4377 41.7795 29.4374H41.7831C42.0234 29.4377 42.2539 29.5334 42.4236 29.7035C42.5934 29.8736 42.6887 30.1042 42.6884 30.3446C42.6882 30.585 42.5925 30.8154 42.4224 30.9851C42.2522 31.1549 42.0216 31.2502 41.7813 31.2499ZM47.2188 31.2499C46.9784 31.2502 46.7478 31.1549 46.5777 30.9851C46.4076 30.8154 46.3119 30.585 46.3116 30.3446C46.3114 30.1042 46.4066 29.8736 46.5764 29.7035C46.7462 29.5334 46.9766 29.4377 47.217 29.4374H47.2224C47.4628 29.4377 47.6932 29.5334 47.863 29.7035C48.0327 29.8736 48.128 30.1042 48.1277 30.3446C48.1275 30.585 48.0318 30.8154 47.8617 30.9851C47.6916 31.1549 47.4609 31.2502 47.2206 31.2499H47.2188Z" fill="black"/>
</g>
<defs>
<clipPath id="clip0">
<rect width="29" height="29" fill="white" transform="translate(30 24)"/>
</clipPath>
</defs>
</svg>
