<svg width="545" height="493" viewBox="0 0 545 493" fill="none" xmlns="http://www.w3.org/2000/svg">
<path fill-rule="evenodd" clip-rule="evenodd" d="M292.019 4.29887C344.46 10.3053 397.654 28.8989 432.515 68.5618C464.274 104.695 450.068 160.226 468.23 204.783C488.765 255.164 547.584 289.965 544.912 344.309C542.093 401.631 506.585 461.93 454.414 485.761C403.296 509.111 347.403 469.328 292.019 459.829C248.704 452.4 206.97 451.026 165.588 436.223C107.133 415.312 20.3363 415.723 2.43917 356.238C-15.5828 296.338 71.4349 256.042 93.8028 197.628C114.244 144.245 85.1273 73.3611 126.037 33.4594C167.274 -6.76045 234.81 -2.25355 292.019 4.29887Z" fill="#F0A410"/>
</svg>
