<svg width="76" height="73" viewBox="0 0 76 73" fill="none" xmlns="http://www.w3.org/2000/svg">
<path d="M6.25384 0.423218H69.6402C73.1381 0.423218 76 3.17394 76 6.66525V47.0797C76 50.571 73.1381 53.5334 69.6402 53.5334H44.9428V64.0073H62.9623C65.6123 64.0073 65.8243 72.6826 66.1423 73H9.85774C9.85774 73 9.85774 64.0073 13.0377 64.0073H31.0572V53.5334H6.25384C2.75593 53.5334 0 50.571 0 47.0797V6.66525C0 3.17394 2.75593 0.423218 6.25384 0.423218ZM6.25384 47.0797H69.6402V6.66525H6.25384V47.0797Z" fill="black"/>
<path d="M55.6737 8.53577C55.4395 8.53577 55.2493 8.72641 55.2493 8.96134C55.2493 8.98317 55.2586 9.0021 55.2618 9.02329H55.2493V19.1133C55.2493 19.3482 55.4395 19.5388 55.6737 19.5388H65.7439V19.5263C65.7651 19.5295 65.784 19.5388 65.8061 19.5388C66.0402 19.5388 66.2305 19.3482 66.2305 19.1133C66.1703 13.2977 61.4781 8.59643 55.6737 8.53577Z" fill="black"/>
<path d="M63.7755 21.563C63.7755 21.3281 63.5856 21.1374 63.3511 21.1374H54.0938C53.9812 21.1374 53.8733 21.0925 53.7937 21.0127C53.7141 20.9329 53.6694 20.8247 53.6694 20.7119V11.4708H53.6569C53.6601 11.4496 53.6694 11.4307 53.6694 11.4089C53.6694 11.1736 53.4791 10.9833 53.2446 10.9833C53.2344 10.9833 53.2261 10.9884 53.2161 10.9891V10.9862C53.1783 10.9858 53.1409 10.9833 53.1031 10.9833C47.209 10.9833 42.4306 15.7709 42.4306 21.6763C42.4306 27.5818 47.209 32.3693 53.1031 32.3693C58.9971 32.3693 63.7755 27.5818 63.7755 21.6763C63.7755 21.6423 63.7739 21.6086 63.7733 21.5742C63.7733 21.5701 63.7755 21.5669 63.7755 21.563Z" fill="black"/>
<g clip-path="url(#clip0)">
<path d="M8.16528 45.9396H38.314V43.5467H10.52V20.2156H8.16528V45.9396ZM12.286 41.2392H38.1879V22.3521L32.7216 27.4371L27.6337 25.5569L22.2515 31.7957L16.7432 29.7873L12.286 34.4877V41.2392Z" fill="black"/>
</g>
<defs>
<clipPath id="clip0">
<rect width="30.1488" height="27.6897" fill="white" transform="translate(8.16528 18.25)"/>
</clipPath>
</defs>
</svg>
