<svg width="1224" height="926" viewBox="0 0 1224 926" fill="none" xmlns="http://www.w3.org/2000/svg">
<path fill-rule="evenodd" clip-rule="evenodd" d="M1155.36 521.415C1124.33 584.888 1028.61 610.522 962.68 656.036C901.809 698.055 859.33 752.204 782.652 778.69C692.427 809.857 585.638 855.669 488.185 819.941C388.742 783.483 386.764 680.847 327.379 611.778C279.255 555.806 208.679 512.902 172.713 453.021C127.557 377.837 49.7432 291.053 93.7027 222.719C137.751 154.247 277.728 162.211 376.287 136.57C458.407 115.206 533.351 73.1738 623.985 84.763C712.598 96.0939 769.709 163.578 850.228 197.172C944.898 236.669 1075.36 233.13 1137.26 298.909C1199.07 364.593 1188.9 452.811 1155.36 521.415Z" fill="#F0A410"/>
</svg>
